PathFileType	4	(X/Y/Z)	C:/Users/beibeiliu/ov580/test_trc\sequence.29_training_dense_left.trc
DataRate	CameraRate	NumFrames	NumMarkers	Units	OrigDataRate	OrigDataStartFrame	OrigNumFrames
120	120	23	19	mm	120	76	200
Frame#	Time	ThumbCMC			ThumbMCP			ThumbIP			ThumbTip			IndexMCP			IndexPIP			IndexTip			MiddleMCP			MiddlePIP			MiddleTip			RingMCP			RingPIP			RingTip			PinkyMCP			PinkyPIP			PinkyTip			BackHand1			BackHand2			BackHand3	
		X0	Y0	Z0	X1	Y1	Z1	X2	Y2	Z2	X3	Y3	Z3	X4	Y4	Z4	X5	Y5	Z5	X6	Y6	Z6	X7	Y7	Z7	X8	Y8	Z8	X9	Y9	Z9	X10	Y10	Z10	X11	Y11	Z11	X12	Y12	Z12	X13	Y13	Z13	X14	Y14	Z14	X15	Y15	Z15	X16	Y16	Z16	X17	Y17	Z17	X18	Y18	Z18	
75	0.625	-161.789	3.96554	160.956	-135.45	2.08624	150.243	-113.696	10.9707	139.353	-95.0376	15.4387	129.084	-157.842	17.3625	86.3193	-141.546	19.0866	61.4456	-126.505	18.7392	41.9715	-169.359	5.91473	72.0028	-158.453	1.24619	46.7936	-139.421	-5.17769	20.9209	-181.547	-14.5676	69.114	-168.499	-14.7525	45.842	-152.104	-23.3345	20.6986	-191.963	-34.0731	77.2932	-186.407	-40.9953	54.4997	-173.134	-41.6335	30.6772	-203.826	-12.3211	113.368	-218.542	-16.0368	144.374	-195.563	6.05091	139.883	
76	0.633333	-156.52	-10.0186	148.759	-131.356	-12.3965	141.639	-110.905	-8.03498	125.018	-90.4081	-1.10182	117.478	-150.825	2.92988	79.3272	-136.429	4.12634	53.5225	-125.901	-3.22673	30.9474	-165.521	-11.9074	59.5208	-155.828	-17.9018	35.5355	-138.541	-23.2212	13.5148	-177.186	-28.5823	61.3196	-167.729	-36.0011	33.426	-153.269	-43.2156	14.3568	-191.753	-51.2233	65.403	-184.445	-57.4948	45.7661	-171.602	-61.5774	18.847	-203.005	-29.1832	107.66	-217.266	-31.2586	129.229	-190.24	-7.41695	125.178	
77	0.641667	-155.581	-26.5342	138.119	-128.339	-29.3283	127.163	-104.141	-24.3296	115.343	-87.1468	-20.9764	104.811	-147.848	-15.0355	65.5263	-132.774	-14.3419	40.6853	-121.346	-21.5106	16.6808	-160.941	-26.0203	50.446	-150.601	-31.9872	27.3924	-136.521	-43.8164	2.32099	-174.255	-44.695	48.6332	-164.159	-52.4553	22.686	-148.818	-59.9181	1.20093	-187.906	-62.3123	54.5067	-180.286	-70.4404	33.4552	-169.012	-75.9543	14.075	-201.661	-39.629	93.7711	-212.945	-42.2293	121.302	-185.929	-20.084	114.184	
78	0.65	-148.402	-34.553	132.148	-122.991	-39.7746	116.726	-101.96	-37.354	104.492	-84.7271	-35.4479	90.4185	-142.797	-24.4191	55.7635	-129.825	-23.1297	34.4269	-118.887	-31.0061	11.3187	-161.644	-38.4439	43.8606	-146.141	-42.6478	14.9983	-131.027	-51.2999	-5.85169	-172.876	-53.194	43.8138	-163.566	-61.1687	15.4476	-148.98	-68.2119	-3.26695	-186.044	-72.3945	51.3444	-177.371	-79.9282	24.558	-167.881	-86.5412	4.1022	-195.486	-49.0904	90.3256	-207.22	-50.314	113.412	-178.731	-28.9441	109.643	
79	0.658333	-146.696	-46.6213	128.224	-120.939	-51.0208	116.384	-97.567	-46.8715	102.6	-81.5513	-45.6242	88.4277	-143.662	-34.5231	55.8933	-129.21	-34.6455	28.2102	-118.451	-38.5785	9.23625	-159.414	-46.8703	40.9731	-146.434	-49.5097	17.7294	-132.727	-61.9602	-6.8538	-170.266	-60.1235	38.1911	-162.533	-68.9331	14.8909	-146.456	-75.1031	-4.76365	-185.57	-80.246	48.0239	-180.226	-88.0568	26.0885	-167.903	-94.7634	4.24735	-195.794	-59.7854	88.8913	-205.655	-56.8357	112.202	-178.374	-37.3261	107.704	
80	0.666667	-149.089	-49.0566	132.355	-121.726	-51.5361	124.753	-102.091	-48.7215	105.104	-85.3537	-48.4325	92.2702	-144.853	-33.908	57.1907	-132.044	-35.6234	32.3369	-117.576	-40.3189	11.9222	-160.971	-48.484	45.6568	-149.164	-52.8991	19.013	-132.841	-62.7659	-1.49622	-171.698	-62.558	46.7623	-162.303	-67.843	22.9754	-144.097	-77.1278	-1.01509	-188.446	-84.8101	49.6518	-177.938	-88.5625	32.3124	-169.529	-97.5739	8.40143	-197.996	-60.9922	88.0294	-204.985	-60.4828	119.395	-179.96	-40.2216	114.135	
81	0.675	-148.88	-46.1178	139.288	-123.263	-50.3323	126.357	-102.965	-46.2716	109.662	-87.2382	-46.8723	95.9963	-147.412	-35.2974	63.9273	-137.285	-36.7672	39.1067	-123.663	-44.4648	14.7222	-160.955	-47.7037	50.0849	-149.295	-51.8247	24.6375	-137.569	-66.8872	0.658073	-175.612	-66.3162	50.474	-167.32	-72.3211	25.9929	-146.463	-79.7673	2.21411	-186.191	-84.0412	54.6301	-179.891	-90.7567	35.0435	-171.839	-102.367	11.1172	-200.634	-64.0498	95.4198	-209.979	-65.8221	121.791	-182.395	-42.3209	117.259	
82	0.683333	-152.426	-46.5337	134.746	-129.1	-52.0189	124.647	-105.908	-48.3715	104.514	-91.6258	-47.3993	88.4367	-149.443	-34.4476	60.0469	-137.648	-36.1301	36.7166	-127.942	-45.9439	12.9183	-165.698	-49.5566	49.4428	-151.475	-55.4117	19.4742	-138.333	-68.7391	-3.03117	-177.778	-66.3082	46.1454	-169.37	-74.4928	22.3266	-149.509	-80.1603	1.57269	-190.878	-85.8678	56.3903	-184.441	-92.9949	32.4625	-174.511	-102.024	11.003	-199.967	-61.0921	90.8225	-211.246	-62.3651	119.976	-187.542	-42.0867	115.39	
83	0.691667	-156.013	-46.6661	122.933	-127.351	-48.7405	110.773	-109.404	-47.2721	91.1017	-91.4376	-45.7455	75.2384	-150.247	-32.7882	47.8893	-138.827	-35.2058	21.9398	-127.395	-42.4234	-0.349663	-167.517	-47.9865	30.9375	-155.505	-55.2316	6.86747	-140.897	-66.7874	-14.424	-179.296	-63.2442	33.805	-170.104	-70.7795	9.00291	-152.566	-81.0154	-13.7548	-193.606	-84.2476	40.9399	-186.763	-92.014	19.1573	-172.459	-96.4812	-4.09545	-203.356	-61.2334	76.9527	-214.685	-62.7795	105.637	-187.058	-38.732	100.209	
84	0.7	-150.473	-38.9063	99.8029	-123.673	-43.4127	88.4572	-102.144	-39.5362	72.6785	-88.2028	-41.3157	56.7258	-147.785	-27.5059	28.239	-134.614	-31.839	-0.640416	-122.927	-36.3498	-19.2268	-160.592	-41.1919	12.059	-152.953	-48.8062	-11.5012	-134.587	-60.0367	-35.0117	-176.636	-58.8435	12.0127	-163.008	-65.1973	-13.1597	-146.698	-75.0643	-33.4305	-187.788	-75.3948	19.1728	-182.239	-85.9952	-1.51598	-169.122	-89.4232	-23.2098	-202.015	-54.3742	56.0694	-210.697	-55.8647	88.1532	-182.981	-32.2869	80.5707	
85	0.708333	-144.952	-33.2618	84.341	-120.295	-38.3978	69.1991	-100.556	-36.6991	53.3956	-82.749	-34.9699	37.1956	-142.579	-22.4497	7.8312	-131.756	-24.6592	-14.0961	-118.476	-32.0919	-37.9789	-156.713	-34.11	-3.47946	-143.705	-41.2267	-31.0304	-129.829	-52.8668	-51.5101	-172.434	-52.87	-6.36361	-158.001	-56.5715	-29.2588	-143.091	-70.0838	-52.2287	-185.257	-70.8456	-1.07309	-175.899	-77.2137	-18.7517	-163.446	-85.8221	-44.9051	-196.259	-49.3491	41.1368	-203.446	-47.3065	67.0903	-177.63	-26.3723	65.7591	
86	0.716667	-143.739	-28.574	73.1347	-116.153	-32.0388	59.0681	-95.4933	-29.126	45.2492	-78.2256	-28.6283	23.783	-140.771	-17.7994	-1.65605	-125.746	-16.1368	-26.8249	-113.81	-25.7414	-50.9583	-157.1	-31.1227	-13.8948	-143.699	-35.1612	-38.7971	-127.433	-49.0813	-66.7493	-167.337	-45.6481	-15.7414	-156.055	-52.9999	-42.762	-143.24	-61.6933	-60.9675	-180.162	-62.6854	-8.54419	-169.471	-69.0587	-31.3366	-162.587	-79.4337	-53.2693	-192.864	-44.1423	32.3412	-200.466	-39.8898	56.1125	-174.194	-18.8679	53.5858	
87	0.725	-141.292	-19.7039	69.9775	-113.686	-22.6029	56.1302	-97.3952	-22.0254	37.3692	-77.8152	-19.0741	23.2964	-139.637	-8.29118	-7.51446	-127.663	-9.68491	-30.2089	-114.148	-17.0667	-53.954	-153.485	-19.9098	-19.2448	-141.433	-24.8697	-43.417	-127.555	-37.7055	-65.7364	-169.505	-39.0681	-19.6068	-156.419	-42.8155	-43.1468	-140.387	-52.9407	-65.5068	-179.451	-55.8621	-11.1207	-171.585	-64.7176	-35.616	-161.978	-72.9944	-55.7348	-193.142	-34.9028	27.6426	-202.016	-34.7865	56.92	-174.527	-11.9901	49.7689	
88	0.733333	-141.516	-10.7944	69.4074	-116.833	-14.6494	57.2521	-93.7572	-9.8065	37.9049	-80.1213	-11.5755	19.8118	-142.301	-1.05003	-3.32365	-126.43	-0.485427	-31.0212	-118.39	-9.30075	-51.5314	-157.045	-14.2003	-20.0867	-144.063	-19.1872	-44.4114	-128.99	-27.4038	-64.2258	-171.07	-32.8884	-16.2345	-158.428	-35.6766	-40.0411	-143.973	-45.559	-62.6223	-180.461	-48.1183	-9.55596	-172.682	-55.7027	-30.3725	-165.337	-66.52	-52.9836	-192.609	-26.0367	31.5761	-202.9	-27.7232	56.768	-172.939	-4.3683	48.2962	
89	0.741667	-143.002	-8.21193	74.2462	-118.425	-10.8181	61.463	-98.4475	-8.0198	42.28	-82.8729	-6.41814	29.7793	-142.815	3.26714	1.26244	-128.613	2.82308	-25.1867	-115.332	-2.57189	-47.706	-157.671	-9.15889	-14.1107	-143.37	-12.3431	-37.8974	-130.737	-23.9978	-60.8808	-169.549	-25.6981	-11.9544	-160.677	-31.6854	-36.6108	-143.558	-38.9339	-56.9808	-184.3	-46.3565	-2.74272	-173.872	-51.737	-26.5402	-161.458	-58.7552	-49.6767	-194.6	-24.94	35.5466	-204.807	-24.9923	62.5041	-174.861	0.172013	54.4088	
90	0.75	-142.908	-3.82902	86.8103	-119.875	-9.53932	70.2392	-95.5596	-4.29465	52.0344	-82.9457	-4.23416	35.1068	-145.557	5.91176	11.3382	-132.726	6.55757	-12.9419	-117.994	-2.0009	-38.4912	-158.643	-6.17653	-0.0140146	-147.243	-9.9591	-26.011	-130.399	-22.4808	-52.4971	-170.586	-21.9248	-0.12856	-160.601	-27.6055	-27.6668	-144.264	-38.4565	-52.575	-184.649	-42.9448	1.91515	-175.052	-45.9567	-16.299	-164.315	-53.7876	-38.2829	-191.276	-18.8866	45.8716	-203.927	-22.8664	69.3282	-175.619	4.8492	65.5936	
91	0.758333	-144.113	2.5042	97.3136	-118.121	-1.82342	84.5394	-97.4663	0.231126	67.7856	-84.6023	-0.603681	50.8684	-142.076	13.9607	19.299	-132.346	10.8495	-2.7565	-118.626	3.89635	-25.3449	-158.169	1.09941	11.856	-144.478	-4.81769	-18.4888	-130.821	-17.7038	-41.0118	-170.568	-16.1943	5.13039	-162.706	-24.2744	-16.1069	-146.756	-33.9658	-38.2821	-184.185	-36.4471	18.181	-176.349	-44.2374	-6.80818	-165.855	-52.2464	-30.9126	-193.194	-12.4811	54.8952	-204.428	-13.9923	79.6165	-176.396	7.47702	74.2047	
92	0.766667	-146.618	5.8037	108.44	-123.243	-0.154384	95.3308	-99.3054	5.61415	76.7298	-86.4238	3.71448	59.2311	-146.154	16.0274	33.2778	-132.951	16.2777	6.64152	-122.105	8.12892	-13.0239	-162.261	2.49393	19.7054	-148.688	-2.93189	-6.34098	-129.698	-12.4394	-30.5978	-173.573	-14.68	17.089	-161.832	-21.0122	-7.39056	-146.49	-27.1506	-26.0549	-186.117	-33.5679	25.7323	-176.739	-39.6495	4.13335	-163.652	-47.278	-19.9573	-196.682	-11.9028	65.0233	-206.12	-10.3003	94.4877	-181.744	8.75084	87.3585	
93	0.775	-151.356	6.52102	116.856	-124.383	3.84153	101.553	-105.549	6.3798	87.8263	-87.1902	9.5262	72.7562	-148.644	20.0404	44.1554	-136.289	19.0412	18.5774	-121.463	11.5005	-5.71458	-161.879	4.96524	26.2944	-151.321	-0.0250166	4.07299	-135.371	-13.0487	-19.9043	-175.196	-15.7224	24.3155	-164.78	-20.9496	4.50102	-145.379	-27.0349	-18.133	-185.406	-31.6526	35.4762	-176.831	-39.2261	12.9738	-164.362	-48.5937	-10.2419	-197.469	-8.27586	74.5485	-206.206	-10.4634	101.859	-184.486	11.9939	95.7754	
94	0.783333	-159.489	4.70003	123.174	-128.308	4.76851	111.778	-107.698	8.44691	91.9381	-95.2357	8.02752	77.6886	-152.518	18.705	47.4062	-143.546	15.0355	23.6461	-129.36	9.36151	3.10687	-167.021	4.20138	33.672	-154.564	-0.800954	9.36049	-140.33	-14.8204	-15.0823	-179.987	-16.5927	33.2601	-168.778	-20.788	12.3345	-152.018	-31.2702	-12.8558	-189.711	-34.7371	42.6085	-184.941	-45.6125	22.6198	-171.536	-51.3951	-3.07401	-201.241	-12.325	83.3615	-214.166	-13.2359	108.34	-190.855	8.01676	101.66	
95	0.791667	-164.794	5.85871	126.595	-136.135	4.25615	116.817	-117.408	8.04647	94.6759	-99.3915	9.63459	82.9961	-160.871	18.2764	49.3727	-149.855	14.3019	25.2556	-135.381	5.65053	2.78172	-177.022	0.973632	37.427	-164.865	-1.28897	16.6029	-148.146	-15.541	-9.31208	-187.736	-18.3215	37.5311	-177.559	-23.032	17.469	-160.779	-31.0819	-4.40556	-199.308	-38.456	49.4479	-187.083	-46.3344	22.946	-174.561	-50.2449	3.10549	-210.479	-12.9739	83.831	-218.29	-14.1387	114.206	-194.775	13.1984	106.341	
96	0.8	-164.785	8.79455	127.998	-138.583	6.04315	114.976	-114.116	11.9449	97.6062	-101.4	10.9923	81.5781	-163.083	19.5898	54.4711	-149.304	19.7612	29.0029	-137.09	8.73843	5.06582	-178.795	1.71988	43.7842	-166.537	-3.1617	16.2448	-150.541	-12.4249	-4.85862	-187.608	-13.2389	41.1893	-176.716	-19.7925	17.3909	-160.771	-29.7188	-2.3451	-197.868	-34.734	48.5199	-187.341	-43.4376	27.4748	-177.258	-53.1042	7.09227	-211.915	-12.3429	87.3528	-223.25	-12.4643	113.573	-195.704	13.4169	111.789	
97	0.808333	-160.32	6.1518	130.418	-132.706	3.79597	118.939	-113.553	6.57102	102.182	-93.9999	9.42808	82.9281	-157.526	19.114	59.0684	-142.36	17.418	29.9514	-129.308	8.47386	7.65033	-173.501	-0.826874	44.5795	-158.142	-3.55949	17.2156	-141.218	-12.5225	-3.85233	-182.111	-15.3043	43.2129	-172.748	-23.8998	19.3442	-155.375	-31.9268	-1.43674	-192.994	-36.0862	51.0584	-181.876	-43.1424	28.3337	-171.311	-52.9877	6.7001	-205.166	-10.1298	89.6834	-217.574	-15.425	119.498	-191.395	10.4127	109.006	
